grf
version=1
nRows=19
nColumns=37
inDegrees=no
endheader
time	ground_force_1_vx	ground_force_1_vy	ground_force_1_vz	ground_force_1_px	ground_force_1_py	ground_force_1_pz	ground_moment_1_mx	ground_moment_1_my	ground_moment_1_mz	ground_force_2_vx	ground_force_2_vy	ground_force_2_vz	ground_force_2_px	ground_force_2_py	ground_force_2_pz	ground_moment_2_mx	ground_moment_2_my	ground_moment_2_mz	ground_force_3_vx	ground_force_3_vy	ground_force_3_vz	ground_force_3_px	ground_force_3_py	ground_force_3_pz	ground_moment_3_mx	ground_moment_3_my	ground_moment_3_mz	ground_force_4_vx	ground_force_4_vy	ground_force_4_vz	ground_force_4_px	ground_force_4_py	ground_force_4_pz	ground_moment_4_mx	ground_moment_4_my	ground_moment_4_mz
      5.48000000	      0.00000000	     -0.00000000	      0.00000000	      0.00000000	      0.00000000	      0.00000000	      0.00000000	      0.00000000	      0.00000000	     14.03137398	     12.40119839	   -677.10296631	   -253.39903684	  -1170.96694723	      0.00000000	      0.00000000	      0.00000000	    287.95000660	      0.00000000	     -0.00000000	      0.00000000	      0.00000000	      0.00000000	      0.00000000	      0.00000000	      0.00000000	      0.00000000	    -34.91595699	     16.14366074	     74.34858704	    610.08706517	   -565.41429394	      0.00000000	      0.00000000	     -0.00000000	    -91.92551896
      5.49000000	      0.00000000	     -0.00000000	      0.00000000	      0.00000000	      0.00000000	      0.00000000	      0.00000000	      0.00000000	      0.00000000	     13.63740158	     10.17430115	   -674.41400146	   -251.39290611	  -1171.02998661	      0.00000000	      0.00000000	      0.00000000	    209.55430394	      0.00000000	     -0.00000000	      0.00000000	      0.00000000	      0.00000000	      0.00000000	      0.00000000	      0.00000000	      0.00000000	    -34.91402675	     16.20840187	     76.05766296	    604.62440033	   -565.18074087	      0.00000000	      0.00000000	     -0.00000000	    -30.70081252
      5.50000000	      0.00000000	     -0.00000000	      0.00000000	      0.00000000	      0.00000000	      0.00000000	      0.00000000	      0.00000000	      0.00000000	     13.61244678	      7.32436705	   -674.57373047	   -249.45060647	  -1170.94841360	      0.00000000	      0.00000000	      0.00000000	    437.41028710	      0.00000000	     -0.00000000	      0.00000000	      0.00000000	      0.00000000	      0.00000000	      0.00000000	      0.00000000	      0.00000000	    -35.09288263	     16.38852236	     75.10375977	    608.17134453	   -566.73013622	      0.00000000	      0.00000000	     -0.00000000	    -85.21169561
      5.51000000	      0.00000000	     -0.00000000	      0.00000000	      0.00000000	      0.00000000	      0.00000000	      0.00000000	      0.00000000	      0.00000000	     12.01827908	      4.22802401	   -676.74731445	   -247.87044099	  -1171.49762532	      0.00000000	      0.00000000	      0.00000000	    483.45099341	      0.00000000	     -0.00000000	      0.00000000	      0.00000000	      0.00000000	      0.00000000	      0.00000000	      0.00000000	      0.00000000	    -34.91391233	     16.02880783	     76.60607910	    599.61324126	   -562.22841617	      0.00000000	      0.00000000	      0.00000000	    -41.28210834
      5.52000000	      0.00000000	     -0.00000000	      0.00000000	      0.00000000	      0.00000000	      0.00000000	      0.00000000	      0.00000000	      0.00000000	     10.61605072	      1.89678085	   -675.83166504	   -246.19403719	  -1171.24216185	      0.00000000	      0.00000000	      0.00000000	    593.39143297	      0.00000000	     -0.00000000	      0.00000000	      0.00000000	      0.00000000	      0.00000000	      0.00000000	      0.00000000	      0.00000000	    -34.65981529	     16.64438551	     75.74934387	    603.64206725	   -564.69959376	      0.00000000	      0.00000000	     -0.00000000	   -220.18025116
      5.53000000	      0.00000000	     -0.00000000	      0.00000000	      0.00000000	      0.00000000	      0.00000000	      0.00000000	      0.00000000	      0.00000000	      8.88520336	      1.48355412	   -674.20733643	   -243.98505986	  -1171.45811936	      0.00000000	      0.00000000	      0.00000000	    626.76343666	      0.00000000	     -0.00000000	      0.00000000	      0.00000000	      0.00000000	      0.00000000	      0.00000000	      0.00000000	      0.00000000	    -35.18621303	     16.21966097	     76.31156921	    603.50237707	   -560.75792902	      0.00000000	      0.00000000	     -0.00000000	   -200.64826395
      5.54000000	      0.00000000	     -0.00000000	      0.00000000	      0.00000000	      0.00000000	      0.00000000	      0.00000000	      0.00000000	      0.00000000	      4.60330629	      1.46532130	   -670.23669434	   -240.53317000	  -1169.88638266	      0.00000000	     -0.00000000	      0.00000000	    582.83811096	      0.00000000	     -0.00000000	      0.00000000	      0.00000000	      0.00000000	      0.00000000	      0.00000000	      0.00000000	      0.00000000	    -34.77440504	     15.98951644	     75.59294891	    604.68498168	   -564.32112711	      0.00000000	      0.00000000	     -0.00000000	    -11.97624537
      5.55000000	      0.00000000	     -0.00000000	      0.00000000	      0.00000000	      0.00000000	      0.00000000	      0.00000000	      0.00000000	      0.00000000	      0.00415722	     -0.63427234	   -667.41156006	   -238.06339956	  -1169.51537380	      0.00000000	      0.00000000	      0.00000000	    356.41835441	      0.00000000	     -0.00000000	      0.00000000	      0.00000000	      0.00000000	      0.00000000	      0.00000000	      0.00000000	      0.00000000	    -34.77448132	     16.11462134	     76.76097870	    600.66954987	   -561.19836521	      0.00000000	      0.00000000	     -0.00000000	   -102.82751353
      5.56000000	      0.00000000	     -0.00000000	      0.00000000	      0.00000000	      0.00000000	      0.00000000	      0.00000000	      0.00000000	      0.00000000	     -2.18057227	     -2.83751130	   -665.13616943	   -235.96174421	  -1168.38483230	      0.00000000	      0.00000000	      0.00000000	    391.01389637	      0.00000000	     -0.00000000	      0.00000000	      0.00000000	      0.00000000	      0.00000000	      0.00000000	      0.00000000	      0.00000000	    -34.61062864	     15.93448179	     75.51362610	    604.53649820	   -565.53224582	      0.00000000	      0.00000000	     -0.00000000	    -51.64535744
      5.57000000	      0.00000000	     -0.00000000	      0.00000000	      0.00000000	      0.00000000	      0.00000000	      0.00000000	      0.00000000	      0.00000000	     -5.25842476	     -5.62509632	   -667.54919434	   -234.44687242	  -1166.65144920	      0.00000000	      0.00000000	      0.00000000	    456.94023939	      0.00000000	     -0.00000000	      0.00000000	      0.00000000	      0.00000000	      0.00000000	      0.00000000	      0.00000000	      0.00000000	    -35.01822902	     16.19836160	     75.20082855	    603.53785664	   -563.77871867	      0.00000000	      0.00000000	     -0.00000000	   -140.39128635
      5.58000000	      0.00000000	     -0.00000000	      0.00000000	      0.00000000	      0.00000000	      0.00000000	      0.00000000	      0.00000000	      0.00000000	     -8.75227165	     -6.90278959	   -673.25885010	   -232.86130774	  -1166.79933699	      0.00000000	     -0.00000000	      0.00000000	    318.06104070	      0.00000000	     -0.00000000	      0.00000000	      0.00000000	      0.00000000	      0.00000000	      0.00000000	      0.00000000	      0.00000000	    -34.84870767	     16.43030281	     74.59551239	    608.72943407	   -565.50660577	      0.00000000	      0.00000000	     -0.00000000	   -164.80503132
      5.59000000	      0.00000000	     -0.00000000	      0.00000000	      0.00000000	      0.00000000	      0.00000000	      0.00000000	      0.00000000	      0.00000000	    -11.54805279	     -8.29853535	   -682.53887939	   -232.30188191	  -1166.15991150	      0.00000000	      0.00000000	     -0.00000000	     90.20927984	      0.00000000	     -0.00000000	      0.00000000	      0.00000000	      0.00000000	      0.00000000	      0.00000000	      0.00000000	      0.00000000	    -34.95363475	     16.26883431	     75.70906067	    604.79676242	   -564.35572708	      0.00000000	      0.00000000	     -0.00000000	    -50.88938606
      5.60000000	      0.00000000	     -0.00000000	      0.00000000	      0.00000000	      0.00000000	      0.00000000	      0.00000000	      0.00000000	      0.00000000	    -13.46167183	     -9.25134850	   -697.72503662	   -232.04747257	  -1165.95879317	      0.00000000	     -0.00000000	      0.00000000	    125.00210977	      0.00000000	     -0.00000000	      0.00000000	      0.00000000	      0.00000000	      0.00000000	      0.00000000	      0.00000000	      0.00000000	    -35.21334697	     16.23512767	     75.35840607	    605.88111329	   -565.67365747	      0.00000000	      0.00000000	     -0.00000000	    -65.48246388
      5.61000000	      0.00000000	     -0.00000000	      0.00000000	      0.00000000	      0.00000000	      0.00000000	      0.00000000	      0.00000000	      0.00000000	    -14.51678467	    -10.09624195	   -713.78533936	   -232.90850464	  -1165.89270273	      0.00000000	      0.00000000	     -0.00000000	    -44.16629326	      0.00000000	     -0.00000000	      0.00000000	      0.00000000	      0.00000000	      0.00000000	      0.00000000	      0.00000000	      0.00000000	    -35.10818720	     16.30056688	     77.17601776	    599.93728568	   -559.64156355	      0.00000000	      0.00000000	     -0.00000000	   -177.30814903
      5.62000000	      0.00000000	     -0.00000000	      0.00000000	      0.00000000	      0.00000000	      0.00000000	      0.00000000	      0.00000000	      0.00000000	    -14.39448261	     -7.87659359	   -731.31054688	   -234.04199973	  -1166.08086670	      0.00000000	      0.00000000	     -0.00000000	   -334.90392397	      0.00000000	     -0.00000000	      0.00000000	      0.00000000	      0.00000000	      0.00000000	      0.00000000	      0.00000000	      0.00000000	    -34.64486555	     15.93297498	     76.44245148	    602.56424368	   -563.19612501	      0.00000000	      0.00000000	      0.00000000	     17.79627428
      5.63000000	      0.00000000	     -0.00000000	      0.00000000	      0.00000000	      0.00000000	      0.00000000	      0.00000000	      0.00000000	      0.00000000	    -12.83793831	     -4.61040640	   -751.05377197	   -235.70385359	  -1166.84461871	      0.00000000	      0.00000000	     -0.00000000	   -744.36356630	      0.00000000	     -0.00000000	      0.00000000	      0.00000000	      0.00000000	      0.00000000	      0.00000000	      0.00000000	      0.00000000	    -34.64479303	     16.34997289	     76.06103516	    603.62339727	   -562.85850607	      0.00000000	      0.00000000	     -0.00000000	   -196.13381309
      5.64000000	      0.00000000	     -0.00000000	      0.00000000	      0.00000000	      0.00000000	      0.00000000	      0.00000000	      0.00000000	      0.00000000	    -11.32156849	     -1.58802938	   -768.71228027	   -237.38772053	  -1168.02388789	      0.00000000	      0.00000000	     -0.00000000	   -952.40969010	      0.00000000	     -0.00000000	      0.00000000	      0.00000000	      0.00000000	      0.00000000	      0.00000000	      0.00000000	      0.00000000	    -34.66126110	     16.14563673	     75.16858673	    609.21894625	   -562.33000264	      0.00000000	      0.00000000	     -0.00000000	   -261.20143582
      5.65000000	      0.00000000	     -0.00000000	      0.00000000	      0.00000000	      0.00000000	      0.00000000	      0.00000000	      0.00000000	      0.00000000	     -9.38349056	      2.39014888	   -780.01348877	   -238.31583034	  -1168.43168285	      0.00000000	      0.00000000	     -0.00000000	  -1127.78288887	      0.00000000	     -0.00000000	      0.00000000	      0.00000000	      0.00000000	      0.00000000	      0.00000000	      0.00000000	      0.00000000	    -34.75836801	     16.38375395	     76.25171661	    602.11056560	   -563.24205904	      0.00000000	      0.00000000	     -0.00000000	   -211.79088880
      5.66000000	      0.00000000	     -0.00000000	      0.00000000	      0.00000000	      0.00000000	      0.00000000	      0.00000000	      0.00000000	      0.00000000	     -7.09605980	      5.39621019	   -791.72851562	   -239.11516288	  -1168.46039249	      0.00000000	      0.00000000	     -0.00000000	  -1160.25012695	      0.00000000	     -0.00000000	      0.00000000	      0.00000000	      0.00000000	      0.00000000	      0.00000000	      0.00000000	      0.00000000	    -34.89607097	     16.24317665	     74.68645477	    607.11405062	   -564.41455909	      0.00000000	     -0.00000000	     -0.00000000	   -189.73362163
